<svg width="180" height="180" viewBox="0 0 180 180" fill="none" xmlns="http://www.w3.org/2000/svg">
  <defs>
    <linearGradient id="appleGrad1" x1="0%" y1="0%" x2="100%" y2="100%">
      <stop offset="0%" style="stop-color:#6366f1;stop-opacity:1" />
      <stop offset="50%" style="stop-color:#8b5cf6;stop-opacity:1" />
      <stop offset="100%" style="stop-color:#ec4899;stop-opacity:1" />
    </linearGradient>
    <linearGradient id="appleGrad2" x1="0%" y1="0%" x2="100%" y2="100%">
      <stop offset="0%" style="stop-color:#06b6d4;stop-opacity:1" />
      <stop offset="50%" style="stop-color:#3b82f6;stop-opacity:1" />
      <stop offset="100%" style="stop-color:#8b5cf6;stop-opacity:1" />
    </linearGradient>
  </defs>
  
  <!-- Background circle -->
  <circle cx="90" cy="90" r="85" fill="url(#appleGrad1)"/>
  
  <!-- Letter L -->
  <path d="M 40 40 L 40 100 L 70 100 L 70 80 L 60 80 L 60 60 L 40 60 Z" fill="white" opacity="0.95"/>
  
  <!-- Letter D -->
  <path d="M 80 40 L 80 100 L 110 100 Q 130 100 130 70 Q 130 40 110 40 Z M 90 50 L 110 50 Q 120 50 120 70 Q 120 90 110 90 L 90 90 Z" fill="white" opacity="0.95"/>
  
  <!-- Letter C -->
  <path d="M 140 70 Q 140 40 120 40 Q 100 40 100 70 Q 100 100 120 100 Q 140 100 140 70 M 130 70 Q 130 85 120 85 Q 110 85 110 70 Q 110 55 120 55 Q 130 55 130 70" fill="white" opacity="0.95"/>
</svg>
